<?xml version="1.0" encoding="UTF-8"?>
<svg version="1.1" xmlns="http://www.w3.org/2000/svg" width="24" height="24">
<path d="M0 0 C3.37728391 1.1257613 3.65740451 1.50496968 5.25 4.5 C7.38456741 9.03902266 7.57383654 13.22194534 6 18 C5.02576063 19.02511348 4.02630182 20.02701256 3 21 C2.67 21.99 2.34 22.98 2 24 C1.34 24 0.68 24 0 24 C-3.39252094 18.65677952 -5.98711729 14.53965206 -5 8 C-3.64184747 4.72808708 -2.50104494 2.50104494 0 0 Z " fill="#5FA85F" transform="translate(11,0)"/>
<path d="M0 0 C0.66 0 1.32 0 2 0 C2 6.27 2 12.54 2 19 C-2 18 -2 18 -3.25 16.375 C-4.71990731 11.72029351 -4.46698203 8.0963926 -2.5625 3.625 C-1 1 -1 1 0 0 Z " fill="#569B4F" transform="translate(10,1)"/>
<path d="M0 0 C0.33 0 0.66 0 1 0 C1.19484938 2.43711614 1.38115178 4.87437398 1.5625 7.3125 C1.61857422 8.00279297 1.67464844 8.69308594 1.73242188 9.40429688 C1.96581505 12.62512274 2.03224218 14.90327345 1 18 C0.34 18 -0.32 18 -1 18 C-1.33 16.68 -1.66 15.36 -2 14 C-1.34 14 -0.68 14 0 14 C0 9.38 0 4.76 0 0 Z " fill="#84B27D" transform="translate(12,6)"/>
</svg>
