<?xml version="1.0" encoding="UTF-8"?>
<svg version="1.1" xmlns="http://www.w3.org/2000/svg" width="24" height="24">
<path d="M0 0 C1.19625 0.185625 2.3925 0.37125 3.625 0.5625 C7.28283707 1.0311197 10.37862166 0.81481013 14 0 C14.12375 1.670625 14.12375 1.670625 14.25 3.375 C14.57873787 7.05753944 14.57873787 7.05753944 17.0625 8.4375 C17.701875 8.623125 18.34125 8.80875 19 9 C18.67 10.65 18.34 12.3 18 14 C17.01 14.33 16.02 14.66 15 15 C14.67 17.31 14.34 19.62 14 22 C12.80375 21.814375 11.6075 21.62875 10.375 21.4375 C6.71716293 20.9688803 3.62137834 21.18518987 0 22 C-0.12375 20.329375 -0.12375 20.329375 -0.25 18.625 C-0.57873787 14.94246056 -0.57873787 14.94246056 -3.0625 13.5625 C-3.701875 13.376875 -4.34125 13.19125 -5 13 C-4.67 11.35 -4.34 9.7 -4 8 C-3.01 7.67 -2.02 7.34 -1 7 C-0.67 4.69 -0.34 2.38 0 0 Z M2 2 C1.67 3.32 1.34 4.64 1 6 C2.32 5.67 3.64 5.34 5 5 C5 4.34 5 3.68 5 3 C4.01 2.67 3.02 2.34 2 2 Z M9 3 C9.33 3.99 9.66 4.98 10 6 C10.99 6 11.98 6 13 6 C12.67 4.68 12.34 3.36 12 2 C10.7763932 1.9254644 10.7763932 1.9254644 9 3 Z M-2 9 C-2 10.32 -2 11.64 -2 13 C-1.01 12.67 -0.02 12.34 1 12 C0.67 11.01 0.34 10.02 0 9 C-0.66 9 -1.32 9 -2 9 Z M14 9 C14 10.32 14 11.64 14 13 C14.99 12.67 15.98 12.34 17 12 C16.67 11.01 16.34 10.02 16 9 C15.34 9 14.68 9 14 9 Z M1 16 C1.33 17.32 1.66 18.64 2 20 C2.99 19.67 3.98 19.34 5 19 C4.67 18.01 4.34 17.02 4 16 C3.01 16 2.02 16 1 16 Z M10 16 C9.67 16.99 9.34 17.98 9 19 C9.99 19.33 10.98 19.66 12 20 C12.33 18.68 12.66 17.36 13 16 C12.01 16 11.02 16 10 16 Z " fill="#52C1DE" transform="translate(5,1)"/>
</svg>
